<?xml version="1.0" encoding="utf-8"?>
<!-- Generator: Adobe Illustrator 26.0.1, SVG Export Plug-In . SVG Version: 6.00 Build 0)  -->
<svg version="1.1" id="Layer_1" xmlns="http://www.w3.org/2000/svg" xmlns:xlink="http://www.w3.org/1999/xlink" x="0px" y="0px"
	 viewBox="0 0 174 65" style="enable-background:new 0 0 174 65;" xml:space="preserve">
<style type="text/css">
	.st0{fill:#D24827;}
	.st1{fill:#9DAEB6;}
</style>
<g>
	<g>
		<g>
			<g>
				<path class="st0" d="M3.4,55.2H0v-1.3h8.4v1.3H5v9.1H3.4V55.2z"/>
				<path class="st0" d="M16.1,53.9h1.6v4.4h5.2v-4.4h1.6v10.4h-1.6v-4.7h-5.2v4.7h-1.6V53.9z"/>
				<path class="st0" d="M33.6,53.9h6.1v1.3h-4.6v3h4.2v1.3h-4.2v3.4h4.6v1.3h-6.1V53.9z"/>
				<path class="st0" d="M48.2,53.9h2.7c0.5,0,1.1,0,1.6,0.1c0.5,0.1,1,0.2,1.4,0.4c0.4,0.2,0.7,0.5,1,0.8c0.2,0.4,0.4,0.9,0.4,1.5
					c0,0.3-0.1,0.6-0.2,0.9c-0.1,0.3-0.3,0.5-0.5,0.7c-0.2,0.2-0.4,0.4-0.7,0.5c-0.3,0.1-0.6,0.2-0.9,0.3v0c0.2,0.1,0.4,0.2,0.6,0.4
					c0.1,0.1,0.3,0.4,0.5,0.7l2.1,4.1h-1.8l-1.7-3.6c-0.1-0.2-0.3-0.4-0.4-0.6c-0.1-0.1-0.3-0.2-0.4-0.3c-0.1-0.1-0.3-0.1-0.5-0.1
					c-0.2,0-0.4,0-0.6,0h-0.9v4.6h-1.6V53.9z M49.8,58.3h1.3c0.8,0,1.3-0.1,1.7-0.4c0.4-0.3,0.6-0.7,0.6-1.2c0-0.5-0.2-0.9-0.6-1.1
					c-0.4-0.3-0.9-0.4-1.6-0.4h-1.5V58.3z"/>
				<path class="st0" d="M67.5,53.9h1.6l4.6,10.4H72l-1.1-2.6h-5.4l-1.1,2.6h-1.6L67.5,53.9z M68.2,55.3L66,60.4h4.4L68.2,55.3z"/>
				<path class="st0" d="M81.3,53.9h2.9c0.6,0,1.1,0.1,1.6,0.2c0.5,0.1,0.9,0.3,1.3,0.5c0.4,0.2,0.7,0.6,0.9,1
					c0.2,0.4,0.3,0.9,0.3,1.5c0,0.6-0.1,1.1-0.3,1.5c-0.2,0.4-0.5,0.7-0.9,1c-0.4,0.2-0.8,0.4-1.2,0.5c-0.5,0.1-0.9,0.2-1.4,0.2
					h-1.5v4.2h-1.6V53.9z M82.9,58.8h1.6c0.2,0,0.5,0,0.8-0.1c0.3-0.1,0.5-0.2,0.7-0.3c0.2-0.1,0.4-0.3,0.5-0.6
					c0.1-0.2,0.2-0.5,0.2-0.9c0-0.3-0.1-0.6-0.2-0.8c-0.2-0.2-0.4-0.4-0.6-0.6c-0.2-0.1-0.5-0.2-0.8-0.3c-0.3-0.1-0.5-0.1-0.8-0.1
					h-1.3V58.8z"/>
				<path class="st0" d="M96.3,53.9h6.1v1.3h-4.6v3h4.2v1.3h-4.2v3.4h4.6v1.3h-6.1V53.9z"/>
				<path class="st0" d="M119.6,60c0,1.5-0.4,2.6-1.1,3.3c-0.7,0.8-1.8,1.1-3.1,1.1c-1.4,0-2.4-0.4-3.1-1.1
					c-0.7-0.8-1.1-1.9-1.1-3.3v-6.1h1.6v5.9c0,0.5,0,1,0.1,1.4c0.1,0.4,0.2,0.8,0.4,1.1c0.2,0.3,0.5,0.5,0.8,0.7
					c0.3,0.2,0.8,0.2,1.3,0.2c0.5,0,0.9-0.1,1.3-0.2c0.3-0.2,0.6-0.4,0.8-0.7c0.2-0.3,0.4-0.7,0.4-1.1c0.1-0.4,0.1-0.9,0.1-1.4v-5.9
					h1.6V60z"/>
				<path class="st0" d="M129.8,55.2h-3.4v-1.3h8.4v1.3h-3.4v9.1h-1.6V55.2z"/>
				<path class="st0" d="M142.4,53.9h1.6v10.4h-1.6V53.9z"/>
				<path class="st0" d="M159.6,55.6c-0.7-0.4-1.4-0.6-2.3-0.6c-0.6,0-1.2,0.1-1.7,0.3c-0.5,0.2-1,0.5-1.3,0.8
					c-0.4,0.4-0.7,0.8-0.9,1.3c-0.2,0.5-0.3,1-0.3,1.6c0,0.6,0.1,1.2,0.3,1.7c0.2,0.5,0.5,0.9,0.9,1.3c0.4,0.4,0.8,0.6,1.3,0.8
					c0.5,0.2,1,0.3,1.6,0.3c0.2,0,0.4,0,0.6,0c0.2,0,0.4-0.1,0.7-0.1c0.2,0,0.4-0.1,0.6-0.2c0.2-0.1,0.4-0.1,0.5-0.2l0.1,1.4
					c-0.4,0.2-0.9,0.3-1.3,0.3c-0.5,0-0.9,0.1-1.2,0.1c-0.9,0-1.7-0.1-2.4-0.4c-0.7-0.3-1.3-0.6-1.8-1.1c-0.5-0.5-0.9-1-1.2-1.7
					c-0.3-0.7-0.4-1.4-0.4-2.2c0-0.8,0.1-1.5,0.4-2.2c0.3-0.7,0.7-1.2,1.2-1.7c0.5-0.5,1.1-0.8,1.8-1.1c0.7-0.3,1.5-0.4,2.3-0.4
					c0.4,0,0.8,0,1.3,0.1c0.4,0.1,0.8,0.2,1.2,0.4L159.6,55.6z"/>
				<path class="st0" d="M172.7,55.4c-0.2-0.1-0.4-0.1-0.5-0.2c-0.2-0.1-0.3-0.1-0.5-0.1c-0.2,0-0.3-0.1-0.5-0.1c-0.2,0-0.4,0-0.5,0
					c-0.2,0-0.4,0-0.7,0.1c-0.2,0-0.4,0.1-0.6,0.2c-0.2,0.1-0.3,0.2-0.5,0.4c-0.1,0.2-0.2,0.4-0.2,0.7c0,0.3,0.1,0.6,0.3,0.8
					c0.2,0.2,0.5,0.4,0.9,0.6c0.4,0.2,0.7,0.4,1.1,0.5c0.4,0.2,0.8,0.4,1.1,0.6c0.4,0.3,0.6,0.6,0.9,1c0.2,0.4,0.3,0.8,0.3,1.4
					c0,0.6-0.1,1-0.3,1.4c-0.2,0.4-0.5,0.7-0.9,1c-0.4,0.2-0.8,0.4-1.3,0.5c-0.5,0.1-1,0.2-1.5,0.2c-0.4,0-0.8,0-1.1-0.1
					c-0.4-0.1-0.7-0.2-1.1-0.3l0.2-1.4c0.1,0,0.3,0.1,0.5,0.2c0.2,0.1,0.4,0.1,0.6,0.2c0.2,0.1,0.4,0.1,0.6,0.1
					c0.2,0,0.4,0.1,0.6,0.1c0.2,0,0.5,0,0.7-0.1c0.3-0.1,0.5-0.2,0.7-0.3c0.2-0.1,0.4-0.3,0.5-0.5c0.1-0.2,0.2-0.5,0.2-0.8
					c0-0.4-0.1-0.7-0.3-0.9c-0.2-0.2-0.5-0.5-0.9-0.6c-0.4-0.2-0.7-0.4-1.1-0.5c-0.4-0.2-0.8-0.4-1.1-0.6c-0.4-0.2-0.6-0.5-0.9-0.9
					c-0.2-0.3-0.3-0.8-0.3-1.3c0-0.5,0.1-0.9,0.3-1.2c0.2-0.4,0.4-0.6,0.7-0.9c0.3-0.2,0.7-0.4,1.1-0.5c0.4-0.1,0.9-0.2,1.4-0.2
					c0.4,0,0.8,0,1.2,0.1c0.4,0.1,0.8,0.2,1.2,0.3L172.7,55.4z"/>
			</g>
			<rect x="103.5" y="18" class="st0" width="8.2" height="4"/>
			<rect x="118.3" y="2.4" class="st0" width="8.2" height="3.1"/>
			<rect x="118.3" y="7" class="st0" width="8.2" height="0.8"/>
			<rect x="118.3" y="38.3" class="st0" width="8.2" height="2.9"/>
		</g>
		<g>
			<g>
				<path class="st1" d="M0.1,43.6h7.6v-39H0.1V43.6z"/>
			</g>
			<g>
				<path class="st1" d="M34.8,43.6h7.3V25.4c0-7.1-3.5-11.2-9.7-11.2c-4.1,0-7.2,1.5-9.4,4.6l0,0h-0.3v-3.9h-6.9v28.7H23v-14
					c0-1.4,0.2-4,1.3-6.2c1.2-2.3,3-3.5,5.5-3.5c5,0,5,5.1,5,8.4V43.6z"/>
			</g>
			<g>
				<path class="st1" d="M46.1,20.1h5.6V35c0,5.8,3.4,9.3,9,9.3c2.1,0,3.9-0.2,5.4-0.6l-0.2-5.7c-0.8,0.4-2,0.7-3.3,0.7
					c-2.5,0-3.6-1.6-3.6-4.9V20.1h6.7v-5.3h-6.7V6.7L51.6,9v5.8h-5.6V20.1z"/>
			</g>
			<g>
				<path class="st1" d="M134.5,43.6h7.3V15.7h-7.3V43.6z"/>
			</g>
			<path class="st1" d="M173.7,37.2c-0.1-2.1-0.1-4.3-0.1-7.2v-3.7c0-4.3-0.9-7.3-2.9-9.2c-2-1.9-5.1-2.9-9.5-2.9
				c-3.2,0-7.1,0.8-9.9,2.1l0.2,6.2c2.6-1.9,5.8-3,8.8-3c4.7,0,6.6,1.8,6.6,6.3v0.1h-4.3c-4.2,0-7.4,0.5-9.7,1.7
				c-3.2,1.6-4.9,4.3-4.9,8.2c0,4.2,3.4,8.5,10,8.5c3.7,0,7.2-2,8.8-4.9l0-0.1h0.3l0,0.1c0,0.2,0,0.5,0,0.8c0,1,0.1,2.3,0.3,3.4h6.4
				C173.8,41.2,173.7,39.2,173.7,37.2z M165.2,36.3c-1.2,1.6-3,2.6-5.3,2.6c-2.7,0-4.8-1.1-4.8-3.5c0-4.4,5-5,8.4-5h3.3
				C166.8,32.5,166.5,34.6,165.2,36.3z"/>
			<rect x="103.5" y="14.8" class="st1" width="8.2" height="1.8"/>
			<rect x="103.5" y="23.4" class="st1" width="8.2" height="1.7"/>
			<rect x="103.5" y="7" class="st1" width="8.2" height="2.6"/>
			<rect x="103.5" y="41.2" class="st1" width="8.2" height="2.4"/>
			<rect x="103.5" y="0" class="st1" width="8.2" height="1.6"/>
			<rect x="103.5" y="12.8" class="st1" width="8.2" height="0.7"/>
			<rect x="103.5" y="28.5" class="st1" width="8.2" height="0.8"/>
			<rect x="103.5" y="4.4" class="st1" width="8.2" height="1.2"/>
			<rect x="103.5" y="30.4" class="st1" width="8.2" height="2.5"/>
			<rect x="103.5" y="36.7" class="st1" width="8.2" height="0.9"/>
			<rect x="118.3" y="36.3" class="st1" width="8.2" height="0.9"/>
			<path class="st1" d="M89.5,35.5c-0.2,0.3-0.3,0.8-0.9,1.5c-1.6,1.8-4.1,1.9-4.7,1.9c-2.8,0-6.9-1.5-7.4-7.8h20.2
				c0-1.7,0.6-10.4-5.7-14.9c-3.1-2.2-6.2-2.3-7.6-2.3c-9.2,0-14.2,7.1-14.2,15.8c0,6.3,2.7,9.9,4.7,11.7c3.5,3.1,8.3,3.3,9.7,3.3
				c4.2,0,6.9-1.4,8.3-2.4c1.6-1.2,3-3,3.8-4.9c0.3-0.8,0.5-1.4,0.5-1.7l-0.5,0H89.5z M76.5,26.1c0.9-3.9,3.4-6.9,6.8-6.9
				c3.4,0,5.8,3,6.3,6.9l0,0.2H76.4L76.5,26.1z"/>
			<rect x="118.3" y="31.7" class="st1" width="8.2" height="1.9"/>
			<rect x="118.3" y="9.9" class="st1" width="8.2" height="1.7"/>
			<rect x="118.3" class="st1" width="8.2" height="0.8"/>
			<rect x="118.3" y="29.7" class="st1" width="8.2" height="0.7"/>
			<rect x="118.3" y="25.1" class="st1" width="8.2" height="2.6"/>
			<rect x="118.3" y="12.8" class="st1" width="8.2" height="2"/>
			<rect x="118.3" y="42.8" class="st1" width="8.2" height="0.7"/>
			<rect x="118.3" y="21.2" class="st1" width="8.2" height="2.1"/>
			<rect x="118.3" y="16.9" class="st1" width="8.2" height="0.9"/>
		</g>
	</g>
	<g>
		<path class="st1" d="M134.5,13.1h7.2V8.5h-7.2V13.1z"/>
	</g>
</g>
</svg>
